<?xml version="1.0" encoding="UTF-8" standalone="no"?><svg xmlns="http://www.w3.org/2000/svg" xmlns:xlink="http://www.w3.org/1999/xlink" contentScriptType="application/ecmascript" contentStyleType="text/css" height="636px" preserveAspectRatio="none" style="width:843px;height:636px;" version="1.1" viewBox="0 0 843 636" width="843px" zoomAndPan="magnify"><defs><filter height="300%" id="flhxzd7" width="300%" x="-1" y="-1"><feGaussianBlur result="blurOut" stdDeviation="2.0"/><feColorMatrix in="blurOut" result="blurOut2" type="matrix" values="0 0 0 0 0 0 0 0 0 0 0 0 0 0 0 0 0 0 .4 0"/><feOffset dx="4.0" dy="4.0" in="blurOut2" result="blurOut3"/><feBlend in="SourceGraphic" in2="blurOut3" mode="normal"/></filter></defs><g><!--cluster net.maritimecloud.identityregistry.model.database.entities--><polygon fill="#FFFFFF" filter="url(#flhxzd7)" points="22,173,490,173,497,195.2969,836,195.2969,836,629,22,629,22,173" style="stroke: #000000; stroke-width: 2.0;"/><line style="stroke: #000000; stroke-width: 2.0;" x1="22" x2="497" y1="195.2969" y2="195.2969"/><text fill="#000000" font-family="sans-serif" font-size="14" font-weight="bold" lengthAdjust="spacingAndGlyphs" textLength="462" x="26" y="187.9951">net.maritimecloud.identityregistry.model.database.entities</text><!--cluster net.maritimecloud.identityregistry.model.database--><polygon fill="#FFFFFF" filter="url(#flhxzd7)" points="108,24,512,24,519,46.2969,529,46.2969,529,149,108,149,108,24" style="stroke: #000000; stroke-width: 2.0;"/><line style="stroke: #000000; stroke-width: 2.0;" x1="108" x2="519" y1="46.2969" y2="46.2969"/><text fill="#000000" font-family="sans-serif" font-size="14" font-weight="bold" lengthAdjust="spacingAndGlyphs" textLength="398" x="112" y="38.9951">net.maritimecloud.identityregistry.model.database</text><!--class net.maritimecloud.identityregistry.model.database.entities.EntityModel--><a target="_top" xlink:actuate="onRequest" xlink:href="EntityModel.html" xlink:show="new" xlink:title="EntityModel.html" xlink:type="simple"><rect fill="#FEFECE" filter="url(#flhxzd7)" height="73.6094" style="stroke: #A80036; stroke-width: 1.5;" width="262" x="300" y="208"/><ellipse cx="390.25" cy="224" fill="#A9DCDF" rx="11" ry="11" style="stroke: #A80036; stroke-width: 1.0;"/><path d="M390.3594,219.3438 L389.2031,224.4219 L391.5313,224.4219 L390.3594,219.3438 Z M388.875,217.1094 L391.8594,217.1094 L395.2188,229.5 L392.7656,229.5 L392,226.4375 L388.7188,226.4375 L387.9688,229.5 L385.5313,229.5 L388.875,217.1094 Z "/><text fill="#000000" font-family="sans-serif" font-size="12" font-style="italic" lengthAdjust="spacingAndGlyphs" textLength="73" x="410.75" y="228.1543">EntityModel</text><line style="stroke: #A80036; stroke-width: 1.5;" x1="301" x2="561" y1="240" y2="240"/><line style="stroke: #A80036; stroke-width: 1.5;" x1="301" x2="561" y1="248" y2="248"/><ellipse cx="311" cy="259.9023" fill="#84BE84" rx="3" ry="3" style="stroke: #038048; stroke-width: 1.0;"/><text fill="#000000" font-family="sans-serif" font-size="11" lengthAdjust="spacingAndGlyphs" textLength="184" x="320" y="262.2104">copyTo(EntityModel): EntityModel</text><ellipse cx="311" cy="272.707" fill="#84BE84" rx="3" ry="3" style="stroke: #038048; stroke-width: 1.0;"/><text fill="#000000" font-family="sans-serif" font-size="11" lengthAdjust="spacingAndGlyphs" textLength="236" x="320" y="275.0151">selectiveCopyTo(EntityModel): EntityModel</text></a><!--class net.maritimecloud.identityregistry.model.database.entities.User--><a target="_top" xlink:actuate="onRequest" xlink:href="User.html" xlink:show="new" xlink:title="User.html" xlink:type="simple"><rect fill="#FEFECE" filter="url(#flhxzd7)" height="86.4141" style="stroke: #A80036; stroke-width: 1.5;" width="225" x="38.5" y="342"/><ellipse cx="132.25" cy="358" fill="#ADD1B2" rx="11" ry="11" style="stroke: #A80036; stroke-width: 1.0;"/><path d="M135.2188,363.6406 Q134.6406,363.9375 134,364.0859 Q133.3594,364.2344 132.6563,364.2344 Q130.1563,364.2344 128.8359,362.5859 Q127.5156,360.9375 127.5156,357.8125 Q127.5156,354.6875 128.8359,353.0313 Q130.1563,351.375 132.6563,351.375 Q133.3594,351.375 134.0078,351.5313 Q134.6563,351.6875 135.2188,351.9844 L135.2188,354.7031 Q134.5938,354.125 134,353.8516 Q133.4063,353.5781 132.7813,353.5781 Q131.4375,353.5781 130.75,354.6484 Q130.0625,355.7188 130.0625,357.8125 Q130.0625,359.9063 130.75,360.9766 Q131.4375,362.0469 132.7813,362.0469 Q133.4063,362.0469 134,361.7734 Q134.5938,361.5 135.2188,360.9219 L135.2188,363.6406 Z "/><text fill="#000000" font-family="sans-serif" font-size="12" lengthAdjust="spacingAndGlyphs" textLength="29" x="152.75" y="362.1543">User</text><line style="stroke: #A80036; stroke-width: 1.5;" x1="39.5" x2="262.5" y1="374" y2="374"/><line style="stroke: #A80036; stroke-width: 1.5;" x1="39.5" x2="262.5" y1="382" y2="382"/><ellipse cx="49.5" cy="393.9023" fill="#84BE84" rx="3" ry="3" style="stroke: #038048; stroke-width: 1.0;"/><text fill="#000000" font-family="sans-serif" font-size="11" lengthAdjust="spacingAndGlyphs" textLength="147" x="58.5" y="396.2104">copyTo(EntityModel): User</text><ellipse cx="49.5" cy="406.707" fill="#84BE84" rx="3" ry="3" style="stroke: #038048; stroke-width: 1.0;"/><text fill="#000000" font-family="sans-serif" font-size="11" lengthAdjust="spacingAndGlyphs" textLength="199" x="58.5" y="409.0151">selectiveCopyTo(EntityModel): User</text><ellipse cx="49.5" cy="419.5117" fill="#84BE84" rx="3" ry="3" style="stroke: #038048; stroke-width: 1.0;"/><text fill="#000000" font-family="sans-serif" font-size="11" lengthAdjust="spacingAndGlyphs" textLength="173" x="58.5" y="421.8198">assignToCert(Certificate): void</text></a><!--class net.maritimecloud.identityregistry.model.database.entities.Service--><a target="_top" xlink:actuate="onRequest" xlink:href="Service.html" xlink:show="new" xlink:title="Service.html" xlink:type="simple"><rect fill="#FEFECE" filter="url(#flhxzd7)" height="124.8281" style="stroke: #A80036; stroke-width: 1.5;" width="240" x="38" y="488"/><ellipse cx="131.25" cy="504" fill="#ADD1B2" rx="11" ry="11" style="stroke: #A80036; stroke-width: 1.0;"/><path d="M134.2188,509.6406 Q133.6406,509.9375 133,510.0859 Q132.3594,510.2344 131.6563,510.2344 Q129.1563,510.2344 127.8359,508.5859 Q126.5156,506.9375 126.5156,503.8125 Q126.5156,500.6875 127.8359,499.0313 Q129.1563,497.375 131.6563,497.375 Q132.3594,497.375 133.0078,497.5313 Q133.6563,497.6875 134.2188,497.9844 L134.2188,500.7031 Q133.5938,500.125 133,499.8516 Q132.4063,499.5781 131.7813,499.5781 Q130.4375,499.5781 129.75,500.6484 Q129.0625,501.7188 129.0625,503.8125 Q129.0625,505.9063 129.75,506.9766 Q130.4375,508.0469 131.7813,508.0469 Q132.4063,508.0469 133,507.7734 Q133.5938,507.5 134.2188,506.9219 L134.2188,509.6406 Z "/><text fill="#000000" font-family="sans-serif" font-size="12" lengthAdjust="spacingAndGlyphs" textLength="45" x="151.75" y="508.1543">Service</text><line style="stroke: #A80036; stroke-width: 1.5;" x1="39" x2="277" y1="520" y2="520"/><line style="stroke: #A80036; stroke-width: 1.5;" x1="39" x2="277" y1="528" y2="528"/><ellipse cx="49" cy="539.9023" fill="#84BE84" rx="3" ry="3" style="stroke: #038048; stroke-width: 1.0;"/><text fill="#000000" font-family="sans-serif" font-size="11" lengthAdjust="spacingAndGlyphs" textLength="162" x="58" y="542.2104">copyTo(EntityModel): Service</text><ellipse cx="49" cy="552.707" fill="#84BE84" rx="3" ry="3" style="stroke: #038048; stroke-width: 1.0;"/><text fill="#000000" font-family="sans-serif" font-size="11" lengthAdjust="spacingAndGlyphs" textLength="214" x="58" y="555.0151">selectiveCopyTo(EntityModel): Service</text><ellipse cx="49" cy="565.5117" fill="#84BE84" rx="3" ry="3" style="stroke: #038048; stroke-width: 1.0;"/><text fill="#000000" font-family="sans-serif" font-size="11" lengthAdjust="spacingAndGlyphs" textLength="173" x="58" y="567.8198">assignToCert(Certificate): void</text><ellipse cx="49" cy="578.3164" fill="#84BE84" rx="3" ry="3" style="stroke: #038048; stroke-width: 1.0;"/><text fill="#000000" font-family="sans-serif" font-size="11" lengthAdjust="spacingAndGlyphs" textLength="167" x="58" y="580.6245">hasSensitiveFields(): boolean</text><ellipse cx="49" cy="591.1211" fill="#84BE84" rx="3" ry="3" style="stroke: #038048; stroke-width: 1.0;"/><text fill="#000000" font-family="sans-serif" font-size="11" lengthAdjust="spacingAndGlyphs" textLength="152" x="58" y="593.4292">clearSensitiveFields(): void</text><ellipse cx="49" cy="603.9258" fill="#84BE84" rx="3" ry="3" style="stroke: #038048; stroke-width: 1.0;"/><text fill="#000000" font-family="sans-serif" font-size="11" lengthAdjust="spacingAndGlyphs" textLength="157" x="58" y="606.2339">generateOidcClientId(): void</text></a><!--class net.maritimecloud.identityregistry.model.database.entities.Vessel--><a target="_top" xlink:actuate="onRequest" xlink:href="Vessel.html" xlink:show="new" xlink:title="Vessel.html" xlink:type="simple"><rect fill="#FEFECE" filter="url(#flhxzd7)" height="99.2188" style="stroke: #A80036; stroke-width: 1.5;" width="236" x="313" y="501"/><ellipse cx="406.25" cy="517" fill="#ADD1B2" rx="11" ry="11" style="stroke: #A80036; stroke-width: 1.0;"/><path d="M409.2188,522.6406 Q408.6406,522.9375 408,523.0859 Q407.3594,523.2344 406.6563,523.2344 Q404.1563,523.2344 402.8359,521.5859 Q401.5156,519.9375 401.5156,516.8125 Q401.5156,513.6875 402.8359,512.0313 Q404.1563,510.375 406.6563,510.375 Q407.3594,510.375 408.0078,510.5313 Q408.6563,510.6875 409.2188,510.9844 L409.2188,513.7031 Q408.5938,513.125 408,512.8516 Q407.4063,512.5781 406.7813,512.5781 Q405.4375,512.5781 404.75,513.6484 Q404.0625,514.7188 404.0625,516.8125 Q404.0625,518.9063 404.75,519.9766 Q405.4375,521.0469 406.7813,521.0469 Q407.4063,521.0469 408,520.7734 Q408.5938,520.5 409.2188,519.9219 L409.2188,522.6406 Z "/><text fill="#000000" font-family="sans-serif" font-size="12" lengthAdjust="spacingAndGlyphs" textLength="41" x="426.75" y="521.1543">Vessel</text><line style="stroke: #A80036; stroke-width: 1.5;" x1="314" x2="548" y1="533" y2="533"/><line style="stroke: #A80036; stroke-width: 1.5;" x1="314" x2="548" y1="541" y2="541"/><ellipse cx="324" cy="552.9023" fill="#84BE84" rx="3" ry="3" style="stroke: #038048; stroke-width: 1.0;"/><text fill="#000000" font-family="sans-serif" font-size="11" lengthAdjust="spacingAndGlyphs" textLength="158" x="333" y="555.2104">copyTo(EntityModel): Vessel</text><ellipse cx="324" cy="565.707" fill="#84BE84" rx="3" ry="3" style="stroke: #038048; stroke-width: 1.0;"/><text fill="#000000" font-family="sans-serif" font-size="11" lengthAdjust="spacingAndGlyphs" textLength="210" x="333" y="568.0151">selectiveCopyTo(EntityModel): Vessel</text><ellipse cx="324" cy="578.5117" fill="#84BE84" rx="3" ry="3" style="stroke: #038048; stroke-width: 1.0;"/><text fill="#000000" font-family="sans-serif" font-size="11" lengthAdjust="spacingAndGlyphs" textLength="102" x="333" y="580.8198">setChildIds(): void</text><ellipse cx="324" cy="591.3164" fill="#84BE84" rx="3" ry="3" style="stroke: #038048; stroke-width: 1.0;"/><text fill="#000000" font-family="sans-serif" font-size="11" lengthAdjust="spacingAndGlyphs" textLength="173" x="333" y="593.6245">assignToCert(Certificate): void</text></a><!--class net.maritimecloud.identityregistry.model.database.entities.VesselAttribute--><a target="_top" xlink:actuate="onRequest" xlink:href="VesselAttribute.html" xlink:show="new" xlink:title="VesselAttribute.html" xlink:type="simple"><rect fill="#FEFECE" filter="url(#flhxzd7)" height="73.6094" style="stroke: #A80036; stroke-width: 1.5;" width="198" x="67" y="208"/><ellipse cx="113.75" cy="224" fill="#ADD1B2" rx="11" ry="11" style="stroke: #A80036; stroke-width: 1.0;"/><path d="M116.7188,229.6406 Q116.1406,229.9375 115.5,230.0859 Q114.8594,230.2344 114.1563,230.2344 Q111.6563,230.2344 110.3359,228.5859 Q109.0156,226.9375 109.0156,223.8125 Q109.0156,220.6875 110.3359,219.0313 Q111.6563,217.375 114.1563,217.375 Q114.8594,217.375 115.5078,217.5313 Q116.1563,217.6875 116.7188,217.9844 L116.7188,220.7031 Q116.0938,220.125 115.5,219.8516 Q114.9063,219.5781 114.2813,219.5781 Q112.9375,219.5781 112.25,220.6484 Q111.5625,221.7188 111.5625,223.8125 Q111.5625,225.9063 112.25,226.9766 Q112.9375,228.0469 114.2813,228.0469 Q114.9063,228.0469 115.5,227.7734 Q116.0938,227.5 116.7188,226.9219 L116.7188,229.6406 Z "/><text fill="#000000" font-family="sans-serif" font-size="12" lengthAdjust="spacingAndGlyphs" textLength="96" x="134.25" y="228.1543">VesselAttribute</text><line style="stroke: #A80036; stroke-width: 1.5;" x1="68" x2="264" y1="240" y2="240"/><line style="stroke: #A80036; stroke-width: 1.5;" x1="68" x2="264" y1="248" y2="248"/><ellipse cx="78" cy="259.9023" fill="#84BE84" rx="3" ry="3" style="stroke: #038048; stroke-width: 1.0;"/><text fill="#000000" font-family="sans-serif" font-size="11" lengthAdjust="spacingAndGlyphs" textLength="71" x="87" y="262.2104">getId(): Long</text><ellipse cx="78" cy="272.707" fill="#84BE84" rx="3" ry="3" style="stroke: #038048; stroke-width: 1.0;"/><text fill="#000000" font-family="sans-serif" font-size="11" lengthAdjust="spacingAndGlyphs" textLength="172" x="87" y="275.0151">setAttributeName(String): void</text></a><!--class net.maritimecloud.identityregistry.model.database.entities.NonHumanEntityModel--><a target="_top" xlink:actuate="onRequest" xlink:href="NonHumanEntityModel.html" xlink:show="new" xlink:title="NonHumanEntityModel.html" xlink:type="simple"><rect fill="#FEFECE" filter="url(#flhxzd7)" height="73.6094" style="stroke: #A80036; stroke-width: 1.5;" width="324" x="299" y="348"/><ellipse cx="385.75" cy="364" fill="#A9DCDF" rx="11" ry="11" style="stroke: #A80036; stroke-width: 1.0;"/><path d="M385.8594,359.3438 L384.7031,364.4219 L387.0313,364.4219 L385.8594,359.3438 Z M384.375,357.1094 L387.3594,357.1094 L390.7188,369.5 L388.2656,369.5 L387.5,366.4375 L384.2188,366.4375 L383.4688,369.5 L381.0313,369.5 L384.375,357.1094 Z "/><text fill="#000000" font-family="sans-serif" font-size="12" font-style="italic" lengthAdjust="spacingAndGlyphs" textLength="142" x="406.25" y="368.1543">NonHumanEntityModel</text><line style="stroke: #A80036; stroke-width: 1.5;" x1="300" x2="622" y1="380" y2="380"/><line style="stroke: #A80036; stroke-width: 1.5;" x1="300" x2="622" y1="388" y2="388"/><ellipse cx="310" cy="399.9023" fill="#84BE84" rx="3" ry="3" style="stroke: #038048; stroke-width: 1.0;"/><text fill="#000000" font-family="sans-serif" font-size="11" lengthAdjust="spacingAndGlyphs" textLength="246" x="319" y="402.2104">copyTo(EntityModel): NonHumanEntityModel</text><ellipse cx="310" cy="412.707" fill="#84BE84" rx="3" ry="3" style="stroke: #038048; stroke-width: 1.0;"/><text fill="#000000" font-family="sans-serif" font-size="11" lengthAdjust="spacingAndGlyphs" textLength="298" x="319" y="415.0151">selectiveCopyTo(EntityModel): NonHumanEntityModel</text></a><!--class net.maritimecloud.identityregistry.model.database.entities.Device--><a target="_top" xlink:actuate="onRequest" xlink:href="Device.html" xlink:show="new" xlink:title="Device.html" xlink:type="simple"><rect fill="#FEFECE" filter="url(#flhxzd7)" height="99.2188" style="stroke: #A80036; stroke-width: 1.5;" width="235" x="584.5" y="501"/><ellipse cx="677.25" cy="517" fill="#ADD1B2" rx="11" ry="11" style="stroke: #A80036; stroke-width: 1.0;"/><path d="M680.2188,522.6406 Q679.6406,522.9375 679,523.0859 Q678.3594,523.2344 677.6563,523.2344 Q675.1563,523.2344 673.8359,521.5859 Q672.5156,519.9375 672.5156,516.8125 Q672.5156,513.6875 673.8359,512.0313 Q675.1563,510.375 677.6563,510.375 Q678.3594,510.375 679.0078,510.5313 Q679.6563,510.6875 680.2188,510.9844 L680.2188,513.7031 Q679.5938,513.125 679,512.8516 Q678.4063,512.5781 677.7813,512.5781 Q676.4375,512.5781 675.75,513.6484 Q675.0625,514.7188 675.0625,516.8125 Q675.0625,518.9063 675.75,519.9766 Q676.4375,521.0469 677.7813,521.0469 Q678.4063,521.0469 679,520.7734 Q679.5938,520.5 680.2188,519.9219 L680.2188,522.6406 Z "/><text fill="#000000" font-family="sans-serif" font-size="12" lengthAdjust="spacingAndGlyphs" textLength="41" x="697.75" y="521.1543">Device</text><line style="stroke: #A80036; stroke-width: 1.5;" x1="585.5" x2="818.5" y1="533" y2="533"/><line style="stroke: #A80036; stroke-width: 1.5;" x1="585.5" x2="818.5" y1="541" y2="541"/><ellipse cx="595.5" cy="552.9023" fill="#84BE84" rx="3" ry="3" style="stroke: #038048; stroke-width: 1.0;"/><text fill="#000000" font-family="sans-serif" font-size="11" lengthAdjust="spacingAndGlyphs" textLength="157" x="604.5" y="555.2104">copyTo(EntityModel): Device</text><ellipse cx="595.5" cy="565.707" fill="#84BE84" rx="3" ry="3" style="stroke: #038048; stroke-width: 1.0;"/><text fill="#000000" font-family="sans-serif" font-size="11" lengthAdjust="spacingAndGlyphs" textLength="209" x="604.5" y="568.0151">selectiveCopyTo(EntityModel): Device</text><ellipse cx="595.5" cy="578.5117" fill="#84BE84" rx="3" ry="3" style="stroke: #038048; stroke-width: 1.0;"/><text fill="#000000" font-family="sans-serif" font-size="11" lengthAdjust="spacingAndGlyphs" textLength="173" x="604.5" y="580.8198">assignToCert(Certificate): void</text><ellipse cx="595.5" cy="591.3164" fill="#84BE84" rx="3" ry="3" style="stroke: #038048; stroke-width: 1.0;"/><text fill="#000000" font-family="sans-serif" font-size="11" lengthAdjust="spacingAndGlyphs" textLength="194" x="604.5" y="593.6245">getCertificates(): Set&lt;Certificate&gt;</text></a><!--class net.maritimecloud.identityregistry.model.database.CertificateModel--><rect fill="#FEFECE" filter="url(#flhxzd7)" height="73.6094" style="stroke: #A80036; stroke-width: 1.5;" width="218" x="295" y="59"/><ellipse cx="349.25" cy="75" fill="#A9DCDF" rx="11" ry="11" style="stroke: #A80036; stroke-width: 1.0;"/><path d="M349.3594,70.3438 L348.2031,75.4219 L350.5313,75.4219 L349.3594,70.3438 Z M347.875,68.1094 L350.8594,68.1094 L354.2188,80.5 L351.7656,80.5 L351,77.4375 L347.7188,77.4375 L346.9688,80.5 L344.5313,80.5 L347.875,68.1094 Z "/><text fill="#000000" font-family="sans-serif" font-size="12" font-style="italic" lengthAdjust="spacingAndGlyphs" textLength="101" x="369.75" y="79.1543">CertificateModel</text><line style="stroke: #A80036; stroke-width: 1.5;" x1="296" x2="512" y1="91" y2="91"/><line style="stroke: #A80036; stroke-width: 1.5;" x1="296" x2="512" y1="99" y2="99"/><ellipse cx="306" cy="110.9023" fill="#84BE84" rx="3" ry="3" style="stroke: #038048; stroke-width: 1.0;"/><text fill="#000000" font-family="sans-serif" font-size="11" font-style="italic" lengthAdjust="spacingAndGlyphs" textLength="192" x="315" y="113.2104">getCertificates(): Set&lt;Certificate&gt;</text><ellipse cx="306" cy="123.707" fill="#84BE84" rx="3" ry="3" style="stroke: #038048; stroke-width: 1.0;"/><text fill="#000000" font-family="sans-serif" font-size="11" font-style="italic" lengthAdjust="spacingAndGlyphs" textLength="172" x="315" y="126.0151">assignToCert(Certificate): void</text><!--class net.maritimecloud.identityregistry.model.database.TimestampModel--><rect fill="#FEFECE" filter="url(#flhxzd7)" height="48" style="stroke: #A80036; stroke-width: 1.5;" width="136" x="124" y="72"/><ellipse cx="139" cy="88" fill="#A9DCDF" rx="11" ry="11" style="stroke: #A80036; stroke-width: 1.0;"/><path d="M139.1094,83.3438 L137.9531,88.4219 L140.2813,88.4219 L139.1094,83.3438 Z M137.625,81.1094 L140.6094,81.1094 L143.9688,93.5 L141.5156,93.5 L140.75,90.4375 L137.4688,90.4375 L136.7188,93.5 L134.2813,93.5 L137.625,81.1094 Z "/><text fill="#000000" font-family="sans-serif" font-size="12" font-style="italic" lengthAdjust="spacingAndGlyphs" textLength="104" x="153" y="92.1543">TimestampModel</text><line style="stroke: #A80036; stroke-width: 1.5;" x1="125" x2="259" y1="104" y2="104"/><line style="stroke: #A80036; stroke-width: 1.5;" x1="125" x2="259" y1="112" y2="112"/><path d="M414.311,153.135 C417.68,171.48 421.331,191.355 424.356,207.826 " fill="none" style="stroke: #A80036; stroke-width: 1.0;"/><polygon fill="none" points="407.402,154.273,410.674,133.337,421.172,151.743,407.402,154.273" style="stroke: #A80036; stroke-width: 1.0;"/><path d="M339.823,290.937 C306.586,307.318 269.153,325.767 236.434,341.893 " fill="none" style="stroke: #A80036; stroke-width: 1.0;"/><polygon fill="none" points="336.765,284.64,357.799,282.078,342.954,297.198,336.765,284.64" style="stroke: #A80036; stroke-width: 1.0;"/><path d="M376.262,431.725 C343.97,449.15 306.618,469.305 272.044,487.961 " fill="none" style="stroke: #A80036; stroke-width: 1.0;"/><polygon fill="none" points="373.205,425.42,394.13,422.083,379.853,437.741,373.205,425.42" style="stroke: #A80036; stroke-width: 1.0;"/><path d="M450.723,442.009 C447.21,461.154 443.313,482.396 439.916,500.908 " fill="none" style="stroke: #A80036; stroke-width: 1.0;"/><polygon fill="none" points="443.847,440.694,454.342,422.286,457.618,443.221,443.847,440.694" style="stroke: #A80036; stroke-width: 1.0;"/><path d="M184.38,140.08 C180.568,161.633 176.007,187.424 172.382,207.92 " fill="none" style="stroke: #A80036; stroke-width: 1.0;"/><polygon fill="none" points="177.504,138.768,187.88,120.293,191.29,141.206,177.504,138.768" style="stroke: #A80036; stroke-width: 1.0;"/><path d="M443.15,301.888 C446.53,317.437 450.11,333.908 453.17,347.984 " fill="none" style="stroke: #A80036; stroke-width: 1.0;"/><polygon fill="none" points="436.291,303.288,438.882,282.258,449.971,300.314,436.291,303.288" style="stroke: #A80036; stroke-width: 1.0;"/><path d="M530.878,433.407 C562.07,454.568 598.793,479.482 630.206,500.793 " fill="none" style="stroke: #A80036; stroke-width: 1.0;"/><polygon fill="none" points="526.808,439.104,514.187,422.083,534.667,427.519,526.808,439.104" style="stroke: #A80036; stroke-width: 1.0;"/></g></svg>