<?xml version="1.0" encoding="UTF-8" standalone="no"?><svg xmlns="http://www.w3.org/2000/svg" xmlns:xlink="http://www.w3.org/1999/xlink" contentScriptType="application/ecmascript" contentStyleType="text/css" height="766px" preserveAspectRatio="none" style="width:1233px;height:766px;" version="1.1" viewBox="0 0 1233 766" width="1233px" zoomAndPan="magnify"><defs><filter height="300%" id="fw7fxi8" width="300%" x="-1" y="-1"><feGaussianBlur result="blurOut" stdDeviation="2.0"/><feColorMatrix in="blurOut" result="blurOut2" type="matrix" values="0 0 0 0 0 0 0 0 0 0 0 0 0 0 0 0 0 0 .4 0"/><feOffset dx="4.0" dy="4.0" in="blurOut2" result="blurOut3"/><feBlend in="SourceGraphic" in2="blurOut3" mode="normal"/></filter></defs><g><!--cluster net.maritimecloud.identityregistry.model.database--><polygon fill="#FFFFFF" filter="url(#fw7fxi8)" points="22,156,426,156,433,178.2969,1226,178.2969,1226,759,22,759,22,156" style="stroke: #000000; stroke-width: 2.0;"/><line style="stroke: #000000; stroke-width: 2.0;" x1="22" x2="433" y1="178.2969" y2="178.2969"/><text fill="#000000" font-family="sans-serif" font-size="14" font-weight="bold" lengthAdjust="spacingAndGlyphs" textLength="398" x="26" y="170.9951">net.maritimecloud.identityregistry.model.database</text><!--cluster net.maritimecloud.identityregistry.model--><polygon fill="#FFFFFF" filter="url(#fw7fxi8)" points="398,24,725,24,732,46.2969,735,46.2969,735,123,398,123,398,24" style="stroke: #000000; stroke-width: 2.0;"/><line style="stroke: #000000; stroke-width: 2.0;" x1="398" x2="732" y1="46.2969" y2="46.2969"/><text fill="#000000" font-family="sans-serif" font-size="14" font-weight="bold" lengthAdjust="spacingAndGlyphs" textLength="321" x="402" y="38.9951">net.maritimecloud.identityregistry.model</text><!--class net.maritimecloud.identityregistry.model.database.TimestampModel--><a target="_top" xlink:actuate="onRequest" xlink:href="TimestampModel.html" xlink:show="new" xlink:title="TimestampModel.html" xlink:type="simple"><rect fill="#FEFECE" filter="url(#fw7fxi8)" height="137.6328" style="stroke: #A80036; stroke-width: 1.5;" width="193" x="469.5" y="191"/><ellipse cx="510.15" cy="207" fill="#A9DCDF" rx="11" ry="11" style="stroke: #A80036; stroke-width: 1.0;"/><path d="M510.2594,202.3438 L509.1031,207.4219 L511.4313,207.4219 L510.2594,202.3438 Z M508.775,200.1094 L511.7594,200.1094 L515.1188,212.5 L512.6656,212.5 L511.9,209.4375 L508.6188,209.4375 L507.8688,212.5 L505.4313,212.5 L508.775,200.1094 Z "/><text fill="#000000" font-family="sans-serif" font-size="12" font-style="italic" lengthAdjust="spacingAndGlyphs" textLength="104" x="529.85" y="211.1543">TimestampModel</text><line style="stroke: #A80036; stroke-width: 1.5;" x1="470.5" x2="661.5" y1="223" y2="223"/><polygon fill="none" points="480.5,229.9023,484.5,233.9023,480.5,237.9023,476.5,233.9023" style="stroke: #B38D22; stroke-width: 1.0;"/><text fill="#000000" font-family="sans-serif" font-size="11" lengthAdjust="spacingAndGlyphs" textLength="45" x="489.5" y="237.2104">id: Long</text><polygon fill="none" points="480.5,242.707,484.5,246.707,480.5,250.707,476.5,246.707" style="stroke: #B38D22; stroke-width: 1.0;"/><text fill="#000000" font-family="sans-serif" font-size="11" lengthAdjust="spacingAndGlyphs" textLength="88" x="489.5" y="250.0151">createdAt: Date</text><polygon fill="none" points="480.5,255.5117,484.5,259.5117,480.5,263.5117,476.5,259.5117" style="stroke: #B38D22; stroke-width: 1.0;"/><text fill="#000000" font-family="sans-serif" font-size="11" lengthAdjust="spacingAndGlyphs" textLength="91" x="489.5" y="262.8198">updatedAt: Date</text><line style="stroke: #A80036; stroke-width: 1.5;" x1="470.5" x2="661.5" y1="269.4141" y2="269.4141"/><ellipse cx="480.5" cy="281.3164" fill="#84BE84" rx="3" ry="3" style="stroke: #038048; stroke-width: 1.0;"/><text fill="#000000" font-family="sans-serif" font-size="11" lengthAdjust="spacingAndGlyphs" textLength="71" x="489.5" y="283.6245">getId(): Long</text><polygon fill="#FFFF44" points="480.5,289.1211,484.5,293.1211,480.5,297.1211,476.5,293.1211" style="stroke: #B38D22; stroke-width: 1.0;"/><text fill="#000000" font-family="sans-serif" font-size="11" lengthAdjust="spacingAndGlyphs" textLength="94" x="489.5" y="296.4292">setId(Long): void</text><ellipse cx="480.5" cy="306.9258" fill="#84BE84" rx="3" ry="3" style="stroke: #038048; stroke-width: 1.0;"/><text fill="#000000" font-family="sans-serif" font-size="11" lengthAdjust="spacingAndGlyphs" textLength="167" x="489.5" y="309.2339">hasSensitiveFields(): boolean</text><ellipse cx="480.5" cy="319.7305" fill="#84BE84" rx="3" ry="3" style="stroke: #038048; stroke-width: 1.0;"/><text fill="#000000" font-family="sans-serif" font-size="11" lengthAdjust="spacingAndGlyphs" textLength="152" x="489.5" y="322.0386">clearSensitiveFields(): void</text></a><!--class net.maritimecloud.identityregistry.model.database.CertificateModel--><a target="_top" xlink:actuate="onRequest" xlink:href="CertificateModel.html" xlink:show="new" xlink:title="CertificateModel.html" xlink:type="simple"><rect fill="#FEFECE" filter="url(#fw7fxi8)" height="112.0234" style="stroke: #A80036; stroke-width: 1.5;" width="198" x="38" y="403"/><ellipse cx="82.25" cy="419" fill="#A9DCDF" rx="11" ry="11" style="stroke: #A80036; stroke-width: 1.0;"/><path d="M82.3594,414.3438 L81.2031,419.4219 L83.5313,419.4219 L82.3594,414.3438 Z M80.875,412.1094 L83.8594,412.1094 L87.2188,424.5 L84.7656,424.5 L84,421.4375 L80.7188,421.4375 L79.9688,424.5 L77.5313,424.5 L80.875,412.1094 Z "/><text fill="#000000" font-family="sans-serif" font-size="12" font-style="italic" lengthAdjust="spacingAndGlyphs" textLength="101" x="102.75" y="423.1543">CertificateModel</text><line style="stroke: #A80036; stroke-width: 1.5;" x1="39" x2="235" y1="435" y2="435"/><line style="stroke: #A80036; stroke-width: 1.5;" x1="39" x2="235" y1="443" y2="443"/><ellipse cx="49" cy="454.9023" fill="#84BE84" rx="3" ry="3" style="stroke: #038048; stroke-width: 1.0;"/><text fill="#000000" font-family="sans-serif" font-size="11" lengthAdjust="spacingAndGlyphs" textLength="102" x="58" y="457.2104">setChildIds(): void</text><ellipse cx="49" cy="467.707" fill="#84BE84" rx="3" ry="3" style="stroke: #038048; stroke-width: 1.0;"/><text fill="#000000" font-family="sans-serif" font-size="11" lengthAdjust="spacingAndGlyphs" textLength="103" x="58" y="470.0151">preRemove(): void</text><ellipse cx="49" cy="480.5117" fill="#84BE84" rx="3" ry="3" style="stroke: #038048; stroke-width: 1.0;"/><text fill="#000000" font-family="sans-serif" font-size="11" lengthAdjust="spacingAndGlyphs" textLength="71" x="58" y="482.8198">getId(): Long</text><polygon fill="#FFFF44" points="49,488.3164,53,492.3164,49,496.3164,45,492.3164" style="stroke: #B38D22; stroke-width: 1.0;"/><text fill="#000000" font-family="sans-serif" font-size="11" lengthAdjust="spacingAndGlyphs" textLength="94" x="58" y="495.6245">setId(Long): void</text><ellipse cx="49" cy="506.1211" fill="#84BE84" rx="3" ry="3" style="stroke: #038048; stroke-width: 1.0;"/><text fill="#000000" font-family="sans-serif" font-size="11" font-style="italic" lengthAdjust="spacingAndGlyphs" textLength="172" x="58" y="508.4292">assignToCert(Certificate): void</text></a><!--class net.maritimecloud.identityregistry.model.database.Role--><a target="_top" xlink:actuate="onRequest" xlink:href="Role.html" xlink:show="new" xlink:title="Role.html" xlink:type="simple"><rect fill="#FEFECE" filter="url(#fw7fxi8)" height="137.6328" style="stroke: #A80036; stroke-width: 1.5;" width="191" x="271.5" y="390"/><ellipse cx="349.25" cy="406" fill="#ADD1B2" rx="11" ry="11" style="stroke: #A80036; stroke-width: 1.0;"/><path d="M352.2188,411.6406 Q351.6406,411.9375 351,412.0859 Q350.3594,412.2344 349.6563,412.2344 Q347.1563,412.2344 345.8359,410.5859 Q344.5156,408.9375 344.5156,405.8125 Q344.5156,402.6875 345.8359,401.0313 Q347.1563,399.375 349.6563,399.375 Q350.3594,399.375 351.0078,399.5313 Q351.6563,399.6875 352.2188,399.9844 L352.2188,402.7031 Q351.5938,402.125 351,401.8516 Q350.4063,401.5781 349.7813,401.5781 Q348.4375,401.5781 347.75,402.6484 Q347.0625,403.7188 347.0625,405.8125 Q347.0625,407.9063 347.75,408.9766 Q348.4375,410.0469 349.7813,410.0469 Q350.4063,410.0469 351,409.7734 Q351.5938,409.5 352.2188,408.9219 L352.2188,411.6406 Z "/><text fill="#000000" font-family="sans-serif" font-size="12" lengthAdjust="spacingAndGlyphs" textLength="27" x="369.75" y="410.1543">Role</text><line style="stroke: #A80036; stroke-width: 1.5;" x1="272.5" x2="461.5" y1="422" y2="422"/><line style="stroke: #A80036; stroke-width: 1.5;" x1="272.5" x2="461.5" y1="430" y2="430"/><ellipse cx="282.5" cy="441.9023" fill="#84BE84" rx="3" ry="3" style="stroke: #038048; stroke-width: 1.0;"/><text fill="#000000" font-family="sans-serif" font-size="11" lengthAdjust="spacingAndGlyphs" textLength="104" x="291.5" y="444.2104">copyTo(Role): Role</text><ellipse cx="282.5" cy="454.707" fill="#84BE84" rx="3" ry="3" style="stroke: #038048; stroke-width: 1.0;"/><text fill="#000000" font-family="sans-serif" font-size="11" lengthAdjust="spacingAndGlyphs" textLength="125" x="291.5" y="457.0151">getRoleName(): String</text><ellipse cx="282.5" cy="467.5117" fill="#84BE84" rx="3" ry="3" style="stroke: #038048; stroke-width: 1.0;"/><text fill="#000000" font-family="sans-serif" font-size="11" lengthAdjust="spacingAndGlyphs" textLength="148" x="291.5" y="469.8198">setRoleName(String): void</text><ellipse cx="282.5" cy="480.3164" fill="#84BE84" rx="3" ry="3" style="stroke: #038048; stroke-width: 1.0;"/><text fill="#000000" font-family="sans-serif" font-size="11" lengthAdjust="spacingAndGlyphs" textLength="132" x="291.5" y="482.6245">getPermission(): String</text><ellipse cx="282.5" cy="493.1211" fill="#84BE84" rx="3" ry="3" style="stroke: #038048; stroke-width: 1.0;"/><text fill="#000000" font-family="sans-serif" font-size="11" lengthAdjust="spacingAndGlyphs" textLength="155" x="291.5" y="495.4292">setPermission(String): void</text><ellipse cx="282.5" cy="505.9258" fill="#84BE84" rx="3" ry="3" style="stroke: #038048; stroke-width: 1.0;"/><text fill="#000000" font-family="sans-serif" font-size="11" lengthAdjust="spacingAndGlyphs" textLength="142" x="291.5" y="508.2339">getIdOrganization(): Long</text><ellipse cx="282.5" cy="518.7305" fill="#84BE84" rx="3" ry="3" style="stroke: #038048; stroke-width: 1.0;"/><text fill="#000000" font-family="sans-serif" font-size="11" lengthAdjust="spacingAndGlyphs" textLength="165" x="291.5" y="521.0386">setIdOrganization(Long): void</text></a><!--class net.maritimecloud.identityregistry.model.database.Organization--><a target="_top" xlink:actuate="onRequest" xlink:href="Organization.html" xlink:show="new" xlink:title="Organization.html" xlink:type="simple"><rect fill="#FEFECE" filter="url(#fw7fxi8)" height="137.6328" style="stroke: #A80036; stroke-width: 1.5;" width="276" x="38" y="605"/><ellipse cx="132.75" cy="621" fill="#ADD1B2" rx="11" ry="11" style="stroke: #A80036; stroke-width: 1.0;"/><path d="M135.7188,626.6406 Q135.1406,626.9375 134.5,627.0859 Q133.8594,627.2344 133.1563,627.2344 Q130.6563,627.2344 129.3359,625.5859 Q128.0156,623.9375 128.0156,620.8125 Q128.0156,617.6875 129.3359,616.0313 Q130.6563,614.375 133.1563,614.375 Q133.8594,614.375 134.5078,614.5313 Q135.1563,614.6875 135.7188,614.9844 L135.7188,617.7031 Q135.0938,617.125 134.5,616.8516 Q133.9063,616.5781 133.2813,616.5781 Q131.9375,616.5781 131.25,617.6484 Q130.5625,618.7188 130.5625,620.8125 Q130.5625,622.9063 131.25,623.9766 Q131.9375,625.0469 133.2813,625.0469 Q133.9063,625.0469 134.5,624.7734 Q135.0938,624.5 135.7188,623.9219 L135.7188,626.6406 Z "/><text fill="#000000" font-family="sans-serif" font-size="12" lengthAdjust="spacingAndGlyphs" textLength="78" x="153.25" y="625.1543">Organization</text><line style="stroke: #A80036; stroke-width: 1.5;" x1="39" x2="313" y1="637" y2="637"/><line style="stroke: #A80036; stroke-width: 1.5;" x1="39" x2="313" y1="645" y2="645"/><ellipse cx="49" cy="656.9023" fill="#84BE84" rx="3" ry="3" style="stroke: #038048; stroke-width: 1.0;"/><text fill="#000000" font-family="sans-serif" font-size="11" lengthAdjust="spacingAndGlyphs" textLength="198" x="58" y="659.2104">copyTo(Organization): Organization</text><ellipse cx="49" cy="669.707" fill="#84BE84" rx="3" ry="3" style="stroke: #038048; stroke-width: 1.0;"/><text fill="#000000" font-family="sans-serif" font-size="11" lengthAdjust="spacingAndGlyphs" textLength="250" x="58" y="672.0151">selectiveCopyTo(Organization): Organization</text><ellipse cx="49" cy="682.5117" fill="#84BE84" rx="3" ry="3" style="stroke: #038048; stroke-width: 1.0;"/><text fill="#000000" font-family="sans-serif" font-size="11" lengthAdjust="spacingAndGlyphs" textLength="102" x="58" y="684.8198">setChildIds(): void</text><ellipse cx="49" cy="695.3164" fill="#84BE84" rx="3" ry="3" style="stroke: #038048; stroke-width: 1.0;"/><text fill="#000000" font-family="sans-serif" font-size="11" lengthAdjust="spacingAndGlyphs" textLength="173" x="58" y="697.6245">assignToCert(Certificate): void</text><ellipse cx="49" cy="708.1211" fill="#84BE84" rx="3" ry="3" style="stroke: #038048; stroke-width: 1.0;"/><text fill="#000000" font-family="sans-serif" font-size="11" lengthAdjust="spacingAndGlyphs" textLength="113" x="58" y="710.4292">copy(): Organization</text><ellipse cx="49" cy="720.9258" fill="#84BE84" rx="3" ry="3" style="stroke: #038048; stroke-width: 1.0;"/><text fill="#000000" font-family="sans-serif" font-size="11" lengthAdjust="spacingAndGlyphs" textLength="167" x="58" y="723.2339">hasSensitiveFields(): boolean</text><ellipse cx="49" cy="733.7305" fill="#84BE84" rx="3" ry="3" style="stroke: #038048; stroke-width: 1.0;"/><text fill="#000000" font-family="sans-serif" font-size="11" lengthAdjust="spacingAndGlyphs" textLength="152" x="58" y="736.0386">clearSensitiveFields(): void</text></a><!--class net.maritimecloud.identityregistry.model.database.Logo--><a target="_top" xlink:actuate="onRequest" xlink:href="Logo.html" xlink:show="new" xlink:title="Logo.html" xlink:type="simple"><rect fill="#FEFECE" filter="url(#fw7fxi8)" height="60.8047" style="stroke: #A80036; stroke-width: 1.5;" width="136" x="498" y="428.5"/><ellipse cx="546.75" cy="444.5" fill="#ADD1B2" rx="11" ry="11" style="stroke: #A80036; stroke-width: 1.0;"/><path d="M549.7188,450.1406 Q549.1406,450.4375 548.5,450.5859 Q547.8594,450.7344 547.1563,450.7344 Q544.6563,450.7344 543.3359,449.0859 Q542.0156,447.4375 542.0156,444.3125 Q542.0156,441.1875 543.3359,439.5313 Q544.6563,437.875 547.1563,437.875 Q547.8594,437.875 548.5078,438.0313 Q549.1563,438.1875 549.7188,438.4844 L549.7188,441.2031 Q549.0938,440.625 548.5,440.3516 Q547.9063,440.0781 547.2813,440.0781 Q545.9375,440.0781 545.25,441.1484 Q544.5625,442.2188 544.5625,444.3125 Q544.5625,446.4063 545.25,447.4766 Q545.9375,448.5469 547.2813,448.5469 Q547.9063,448.5469 548.5,448.2734 Q549.0938,448 549.7188,447.4219 L549.7188,450.1406 Z "/><text fill="#000000" font-family="sans-serif" font-size="12" lengthAdjust="spacingAndGlyphs" textLength="30" x="567.25" y="448.6543">Logo</text><line style="stroke: #A80036; stroke-width: 1.5;" x1="499" x2="633" y1="460.5" y2="460.5"/><line style="stroke: #A80036; stroke-width: 1.5;" x1="499" x2="633" y1="468.5" y2="468.5"/><ellipse cx="509" cy="480.4023" fill="#84BE84" rx="3" ry="3" style="stroke: #038048; stroke-width: 1.0;"/><text fill="#000000" font-family="sans-serif" font-size="11" lengthAdjust="spacingAndGlyphs" textLength="110" x="518" y="482.7104">copyTo(Logo): Logo</text></a><!--class net.maritimecloud.identityregistry.model.database.Certificate--><a target="_top" xlink:actuate="onRequest" xlink:href="Certificate.html" xlink:show="new" xlink:title="Certificate.html" xlink:type="simple"><rect fill="#FEFECE" filter="url(#fw7fxi8)" height="60.8047" style="stroke: #A80036; stroke-width: 1.5;" width="217" x="455.5" y="643.5"/><ellipse cx="527.75" cy="659.5" fill="#ADD1B2" rx="11" ry="11" style="stroke: #A80036; stroke-width: 1.0;"/><path d="M530.7188,665.1406 Q530.1406,665.4375 529.5,665.5859 Q528.8594,665.7344 528.1563,665.7344 Q525.6563,665.7344 524.3359,664.0859 Q523.0156,662.4375 523.0156,659.3125 Q523.0156,656.1875 524.3359,654.5313 Q525.6563,652.875 528.1563,652.875 Q528.8594,652.875 529.5078,653.0313 Q530.1563,653.1875 530.7188,653.4844 L530.7188,656.2031 Q530.0938,655.625 529.5,655.3516 Q528.9063,655.0781 528.2813,655.0781 Q526.9375,655.0781 526.25,656.1484 Q525.5625,657.2188 525.5625,659.3125 Q525.5625,661.4063 526.25,662.4766 Q526.9375,663.5469 528.2813,663.5469 Q528.9063,663.5469 529.5,663.2734 Q530.0938,663 530.7188,662.4219 L530.7188,665.1406 Z "/><text fill="#000000" font-family="sans-serif" font-size="12" lengthAdjust="spacingAndGlyphs" textLength="64" x="548.25" y="663.6543">Certificate</text><line style="stroke: #A80036; stroke-width: 1.5;" x1="456.5" x2="671.5" y1="675.5" y2="675.5"/><line style="stroke: #A80036; stroke-width: 1.5;" x1="456.5" x2="671.5" y1="683.5" y2="683.5"/><ellipse cx="466.5" cy="695.4023" fill="#84BE84" rx="3" ry="3" style="stroke: #038048; stroke-width: 1.0;"/><text fill="#000000" font-family="sans-serif" font-size="11" lengthAdjust="spacingAndGlyphs" textLength="191" x="475.5" y="697.7104">toRevocationInfo(): RevocationInfo</text></a><!--class net.maritimecloud.identityregistry.model.database.IdentityProviderAttribute--><a target="_top" xlink:actuate="onRequest" xlink:href="IdentityProviderAttribute.html" xlink:show="new" xlink:title="IdentityProviderAttribute.html" xlink:type="simple"><rect fill="#FEFECE" filter="url(#fw7fxi8)" height="86.4141" style="stroke: #A80036; stroke-width: 1.5;" width="503" x="706.5" y="416"/><ellipse cx="877.75" cy="432" fill="#ADD1B2" rx="11" ry="11" style="stroke: #A80036; stroke-width: 1.0;"/><path d="M880.7188,437.6406 Q880.1406,437.9375 879.5,438.0859 Q878.8594,438.2344 878.1563,438.2344 Q875.6563,438.2344 874.3359,436.5859 Q873.0156,434.9375 873.0156,431.8125 Q873.0156,428.6875 874.3359,427.0313 Q875.6563,425.375 878.1563,425.375 Q878.8594,425.375 879.5078,425.5313 Q880.1563,425.6875 880.7188,425.9844 L880.7188,428.7031 Q880.0938,428.125 879.5,427.8516 Q878.9063,427.5781 878.2813,427.5781 Q876.9375,427.5781 876.25,428.6484 Q875.5625,429.7188 875.5625,431.8125 Q875.5625,433.9063 876.25,434.9766 Q876.9375,436.0469 878.2813,436.0469 Q878.9063,436.0469 879.5,435.7734 Q880.0938,435.5 880.7188,434.9219 L880.7188,437.6406 Z "/><text fill="#000000" font-family="sans-serif" font-size="12" lengthAdjust="spacingAndGlyphs" textLength="152" x="898.25" y="436.1543">IdentityProviderAttribute</text><line style="stroke: #A80036; stroke-width: 1.5;" x1="707.5" x2="1208.5" y1="448" y2="448"/><line style="stroke: #A80036; stroke-width: 1.5;" x1="707.5" x2="1208.5" y1="456" y2="456"/><ellipse cx="717.5" cy="467.9023" fill="#84BE84" rx="3" ry="3" style="stroke: #038048; stroke-width: 1.0;"/><text fill="#000000" font-family="sans-serif" font-size="11" lengthAdjust="spacingAndGlyphs" textLength="71" x="726.5" y="470.2104">getId(): Long</text><ellipse cx="717.5" cy="480.707" fill="#84BE84" rx="3" ry="3" style="stroke: #038048; stroke-width: 1.0;"/><text fill="#000000" font-family="sans-serif" font-size="11" lengthAdjust="spacingAndGlyphs" textLength="315" x="726.5" y="483.0151">compareNameAndValueTo(IdentityProviderAttribute): int</text><ellipse cx="717.5" cy="493.5117" fill="#84BE84" rx="3" ry="3" style="stroke: #038048; stroke-width: 1.0;"/><text fill="#000000" font-family="sans-serif" font-size="11" lengthAdjust="spacingAndGlyphs" text-decoration="underline" textLength="477" x="726.5" y="495.8198">listsEquals(Set&lt;IdentityProviderAttribute&gt;, Set&lt;IdentityProviderAttribute&gt;): boolean</text><line style="stroke: #000000; stroke-width: 1.0;" x1="726.5" x2="1203.5" y1="497.8198" y2="497.8198"/></a><!--class net.maritimecloud.identityregistry.model.JsonSerializable--><rect fill="#FEFECE" filter="url(#fw7fxi8)" height="48" style="stroke: #A80036; stroke-width: 1.5;" width="129" x="501.5" y="59"/><ellipse cx="516.5" cy="75" fill="#B4A7E5" rx="11" ry="11" style="stroke: #A80036; stroke-width: 1.0;"/><path d="M512.4219,70.7656 L512.4219,68.6094 L519.8125,68.6094 L519.8125,70.7656 L517.3438,70.7656 L517.3438,78.8438 L519.8125,78.8438 L519.8125,81 L512.4219,81 L512.4219,78.8438 L514.8906,78.8438 L514.8906,70.7656 L512.4219,70.7656 Z "/><text fill="#000000" font-family="sans-serif" font-size="12" font-style="italic" lengthAdjust="spacingAndGlyphs" textLength="97" x="530.5" y="79.1543">JsonSerializable</text><line style="stroke: #A80036; stroke-width: 1.5;" x1="502.5" x2="629.5" y1="91" y2="91"/><line style="stroke: #A80036; stroke-width: 1.5;" x1="502.5" x2="629.5" y1="99" y2="99"/><path d="M566,127.258 C566,146.38 566,169.327 566,190.674 " fill="none" style="stroke: #A80036; stroke-width: 1.0; stroke-dasharray: 7.0,7.0;"/><polygon fill="none" points="559,127.239,566,107.239,573,127.239,559,127.239" style="stroke: #A80036; stroke-width: 1.0;"/><path d="M450.46,304.475 C390.921,327.951 317.647,358.524 254,390 C245.892,394.01 237.577,398.351 229.3,402.834 " fill="none" style="stroke: #A80036; stroke-width: 1.0;"/><polygon fill="none" points="448.103,297.881,469.278,297.11,453.205,310.918,448.103,297.881" style="stroke: #A80036; stroke-width: 1.0;"/><path d="M483.003,343.163 C467.279,358.728 450.99,374.854 435.766,389.925 " fill="none" style="stroke: #A80036; stroke-width: 1.0;"/><polygon fill="none" points="478.099,338.168,497.237,329.072,487.948,348.117,478.099,338.168" style="stroke: #A80036; stroke-width: 1.0;"/><path d="M150.709,534.872 C154.874,557.619 159.427,582.483 163.507,604.769 " fill="none" style="stroke: #A80036; stroke-width: 1.0;"/><polygon fill="none" points="143.811,536.064,147.094,515.13,157.582,533.542,143.811,536.064" style="stroke: #A80036; stroke-width: 1.0;"/><path d="M566,349.421 C566,377.83 566,407.369 566,428.452 " fill="none" style="stroke: #A80036; stroke-width: 1.0;"/><polygon fill="none" points="559,349.072,566,329.072,573,349.072,559,349.072" style="stroke: #A80036; stroke-width: 1.0;"/><path d="M632.635,346.315 C640.586,360.261 647.475,375.056 652,390 C669.773,448.702 668.521,468.934 652,528 C639.745,571.814 610.23,615.557 588.752,643.356 " fill="none" style="stroke: #A80036; stroke-width: 1.0;"/><polygon fill="none" points="626.599,349.862,622.095,329.157,638.528,342.534,626.599,349.862" style="stroke: #A80036; stroke-width: 1.0;"/><path d="M680.602,318.594 C742.643,349.772 817.916,387.601 874.388,415.981 " fill="none" style="stroke: #A80036; stroke-width: 1.0;"/><polygon fill="none" points="677.374,324.806,662.647,309.57,683.661,312.296,677.374,324.806" style="stroke: #A80036; stroke-width: 1.0;"/><path d="M230.143,515.125 C238.163,519.569 246.193,523.916 254,528 C333.915,569.808 428.052,613.016 491.448,641.265 " fill="none" style="stroke: #A80036; stroke-width: 1.0;"/><polygon fill="#A80036" points="496.339,643.442,489.7443,636.1269,491.7714,641.4081,486.4901,643.4351,496.339,643.442" style="stroke: #A80036; stroke-width: 1.0;"/><text fill="#000000" font-family="sans-serif" font-size="13" lengthAdjust="spacingAndGlyphs" textLength="70" x="347" y="571.0669">certificates</text><text fill="#000000" font-family="sans-serif" font-size="13" lengthAdjust="spacingAndGlyphs" textLength="7" x="473.7725" y="632.2196">*</text></g></svg>