<?xml version="1.0" encoding="UTF-8" standalone="no"?><svg xmlns="http://www.w3.org/2000/svg" xmlns:xlink="http://www.w3.org/1999/xlink" contentScriptType="application/ecmascript" contentStyleType="text/css" height="592px" preserveAspectRatio="none" style="width:2073px;height:592px;" version="1.1" viewBox="0 0 2073 592" width="2073px" zoomAndPan="magnify"><defs><filter height="300%" id="ftalnp7" width="300%" x="-1" y="-1"><feGaussianBlur result="blurOut" stdDeviation="2.0"/><feColorMatrix in="blurOut" result="blurOut2" type="matrix" values="0 0 0 0 0 0 0 0 0 0 0 0 0 0 0 0 0 0 .4 0"/><feOffset dx="4.0" dy="4.0" in="blurOut2" result="blurOut3"/><feBlend in="SourceGraphic" in2="blurOut3" mode="normal"/></filter></defs><g><!--cluster net.maritimecloud.identityregistry.repositories--><polygon fill="#FFFFFF" filter="url(#ftalnp7)" points="22,288,397,288,404,310.2969,2066,310.2969,2066,585,22,585,22,288" style="stroke: #000000; stroke-width: 2.0;"/><line style="stroke: #000000; stroke-width: 2.0;" x1="22" x2="404" y1="310.2969" y2="310.2969"/><text fill="#000000" font-family="sans-serif" font-size="14" font-weight="bold" lengthAdjust="spacingAndGlyphs" textLength="369" x="26" y="302.9951">net.maritimecloud.identityregistry.repositories</text><!--cluster org.springframework.data.repository--><polygon fill="#FFFFFF" filter="url(#ftalnp7)" points="765,24,1065,24,1072,46.2969,1291,46.2969,1291,264,765,264,765,24" style="stroke: #000000; stroke-width: 2.0;"/><line style="stroke: #000000; stroke-width: 2.0;" x1="765" x2="1072" y1="46.2969" y2="46.2969"/><text fill="#000000" font-family="sans-serif" font-size="14" font-weight="bold" lengthAdjust="spacingAndGlyphs" textLength="294" x="769" y="38.9951">org.springframework.data.repository</text><!--class net.maritimecloud.identityregistry.repositories.DeviceRepository--><a target="_top" xlink:actuate="onRequest" xlink:href="DeviceRepository.html" xlink:show="new" xlink:title="DeviceRepository.html" xlink:type="simple"><rect fill="#FEFECE" filter="url(#ftalnp7)" height="60.8047" style="stroke: #A80036; stroke-width: 1.5;" width="219" x="1169.5" y="508"/><ellipse cx="1221.25" cy="524" fill="#B4A7E5" rx="11" ry="11" style="stroke: #A80036; stroke-width: 1.0;"/><path d="M1217.1719,519.7656 L1217.1719,517.6094 L1224.5625,517.6094 L1224.5625,519.7656 L1222.0938,519.7656 L1222.0938,527.8438 L1224.5625,527.8438 L1224.5625,530 L1217.1719,530 L1217.1719,527.8438 L1219.6406,527.8438 L1219.6406,519.7656 L1217.1719,519.7656 Z "/><text fill="#000000" font-family="sans-serif" font-size="12" font-style="italic" lengthAdjust="spacingAndGlyphs" textLength="107" x="1241.75" y="528.1543">DeviceRepository</text><line style="stroke: #A80036; stroke-width: 1.5;" x1="1170.5" x2="1387.5" y1="540" y2="540"/><line style="stroke: #A80036; stroke-width: 1.5;" x1="1170.5" x2="1387.5" y1="548" y2="548"/><ellipse cx="1180.5" cy="559.9023" fill="#84BE84" rx="3" ry="3" style="stroke: #038048; stroke-width: 1.0;"/><text fill="#000000" font-family="sans-serif" font-size="11" font-style="italic" lengthAdjust="spacingAndGlyphs" textLength="193" x="1189.5" y="562.2104">findByName(String): List&lt;Device&gt;</text></a><!--class net.maritimecloud.identityregistry.repositories.ServiceRepository--><a target="_top" xlink:actuate="onRequest" xlink:href="ServiceRepository.html" xlink:show="new" xlink:title="ServiceRepository.html" xlink:type="simple"><rect fill="#FEFECE" filter="url(#ftalnp7)" height="124.8281" style="stroke: #A80036; stroke-width: 1.5;" width="388" x="960" y="323"/><ellipse cx="1094.25" cy="339" fill="#B4A7E5" rx="11" ry="11" style="stroke: #A80036; stroke-width: 1.0;"/><path d="M1090.1719,334.7656 L1090.1719,332.6094 L1097.5625,332.6094 L1097.5625,334.7656 L1095.0938,334.7656 L1095.0938,342.8438 L1097.5625,342.8438 L1097.5625,345 L1090.1719,345 L1090.1719,342.8438 L1092.6406,342.8438 L1092.6406,334.7656 L1090.1719,334.7656 Z "/><text fill="#000000" font-family="sans-serif" font-size="12" font-style="italic" lengthAdjust="spacingAndGlyphs" textLength="111" x="1114.75" y="343.1543">ServiceRepository</text><line style="stroke: #A80036; stroke-width: 1.5;" x1="961" x2="1347" y1="355" y2="355"/><line style="stroke: #A80036; stroke-width: 1.5;" x1="961" x2="1347" y1="363" y2="363"/><ellipse cx="971" cy="374.9023" fill="#84BE84" rx="3" ry="3" style="stroke: #038048; stroke-width: 1.0;"/><text fill="#000000" font-family="sans-serif" font-size="11" font-style="italic" lengthAdjust="spacingAndGlyphs" textLength="309" x="980" y="377.2104">findByidOrganization(Long, Pageable): Page&lt;Service&gt;</text><ellipse cx="971" cy="387.707" fill="#84BE84" rx="3" ry="3" style="stroke: #038048; stroke-width: 1.0;"/><text fill="#000000" font-family="sans-serif" font-size="11" font-style="italic" lengthAdjust="spacingAndGlyphs" textLength="240" x="980" y="390.0151">findByidOrganization(Long): List&lt;Service&gt;</text><ellipse cx="971" cy="400.5117" fill="#84BE84" rx="3" ry="3" style="stroke: #038048; stroke-width: 1.0;"/><text fill="#000000" font-family="sans-serif" font-size="11" font-style="italic" lengthAdjust="spacingAndGlyphs" textLength="199" x="980" y="402.8198">deleteByidOrganization(Long): void</text><ellipse cx="971" cy="413.3164" fill="#84BE84" rx="3" ry="3" style="stroke: #038048; stroke-width: 1.0;"/><text fill="#000000" font-family="sans-serif" font-size="11" font-style="italic" lengthAdjust="spacingAndGlyphs" textLength="197" x="980" y="415.6245">findByName(String): List&lt;Service&gt;</text><ellipse cx="971" cy="426.1211" fill="#84BE84" rx="3" ry="3" style="stroke: #038048; stroke-width: 1.0;"/><text fill="#000000" font-family="sans-serif" font-size="11" font-style="italic" lengthAdjust="spacingAndGlyphs" textLength="362" x="980" y="428.4292">getByMrnIgnoreCaseAndInstanceVersion(String, String): Service</text><ellipse cx="971" cy="438.9258" fill="#84BE84" rx="3" ry="3" style="stroke: #038048; stroke-width: 1.0;"/><text fill="#000000" font-family="sans-serif" font-size="11" font-style="italic" lengthAdjust="spacingAndGlyphs" textLength="318" x="980" y="441.2339">findByMrnIgnoreCase(String, Pageable): Page&lt;Service&gt;</text></a><!--class net.maritimecloud.identityregistry.repositories.RoleRepository--><a target="_top" xlink:actuate="onRequest" xlink:href="RoleRepository.html" xlink:show="new" xlink:title="RoleRepository.html" xlink:type="simple"><rect fill="#FEFECE" filter="url(#ftalnp7)" height="86.4141" style="stroke: #A80036; stroke-width: 1.5;" width="374" x="38" y="342.5"/><ellipse cx="174.25" cy="358.5" fill="#B4A7E5" rx="11" ry="11" style="stroke: #A80036; stroke-width: 1.0;"/><path d="M170.1719,354.2656 L170.1719,352.1094 L177.5625,352.1094 L177.5625,354.2656 L175.0938,354.2656 L175.0938,362.3438 L177.5625,362.3438 L177.5625,364.5 L170.1719,364.5 L170.1719,362.3438 L172.6406,362.3438 L172.6406,354.2656 L170.1719,354.2656 Z "/><text fill="#000000" font-family="sans-serif" font-size="12" font-style="italic" lengthAdjust="spacingAndGlyphs" textLength="93" x="194.75" y="362.6543">RoleRepository</text><line style="stroke: #A80036; stroke-width: 1.5;" x1="39" x2="411" y1="374.5" y2="374.5"/><line style="stroke: #A80036; stroke-width: 1.5;" x1="39" x2="411" y1="382.5" y2="382.5"/><ellipse cx="49" cy="394.4023" fill="#84BE84" rx="3" ry="3" style="stroke: #038048; stroke-width: 1.0;"/><text fill="#000000" font-family="sans-serif" font-size="11" font-style="italic" lengthAdjust="spacingAndGlyphs" textLength="223" x="58" y="396.7104">findByidOrganization(Long): List&lt;Role&gt;</text><ellipse cx="49" cy="407.207" fill="#84BE84" rx="3" ry="3" style="stroke: #038048; stroke-width: 1.0;"/><text fill="#000000" font-family="sans-serif" font-size="11" font-style="italic" lengthAdjust="spacingAndGlyphs" textLength="199" x="58" y="409.5151">deleteByidOrganization(Long): void</text><ellipse cx="49" cy="420.0117" fill="#84BE84" rx="3" ry="3" style="stroke: #038048; stroke-width: 1.0;"/><text fill="#000000" font-family="sans-serif" font-size="11" font-style="italic" lengthAdjust="spacingAndGlyphs" textLength="348" x="58" y="422.3198">findByIdOrganizationAndPermission(Long, String): List&lt;Role&gt;</text></a><!--class net.maritimecloud.identityregistry.repositories.OrganizationRepository--><a target="_top" xlink:actuate="onRequest" xlink:href="OrganizationRepository.html" xlink:show="new" xlink:title="OrganizationRepository.html" xlink:type="simple"><rect fill="#FEFECE" filter="url(#ftalnp7)" height="99.2188" style="stroke: #A80036; stroke-width: 1.5;" width="332" x="1718" y="336"/><ellipse cx="1807.75" cy="352" fill="#B4A7E5" rx="11" ry="11" style="stroke: #A80036; stroke-width: 1.0;"/><path d="M1803.6719,347.7656 L1803.6719,345.6094 L1811.0625,345.6094 L1811.0625,347.7656 L1808.5938,347.7656 L1808.5938,355.8438 L1811.0625,355.8438 L1811.0625,358 L1803.6719,358 L1803.6719,355.8438 L1806.1406,355.8438 L1806.1406,347.7656 L1803.6719,347.7656 Z "/><text fill="#000000" font-family="sans-serif" font-size="12" font-style="italic" lengthAdjust="spacingAndGlyphs" textLength="144" x="1828.25" y="356.1543">OrganizationRepository</text><line style="stroke: #A80036; stroke-width: 1.5;" x1="1719" x2="2049" y1="368" y2="368"/><line style="stroke: #A80036; stroke-width: 1.5;" x1="1719" x2="2049" y1="376" y2="376"/><ellipse cx="1729" cy="387.9023" fill="#84BE84" rx="3" ry="3" style="stroke: #038048; stroke-width: 1.0;"/><text fill="#000000" font-family="sans-serif" font-size="11" font-style="italic" lengthAdjust="spacingAndGlyphs" textLength="281" x="1738" y="390.2104">findByMrnAndApprovedTrue(String): Organization</text><ellipse cx="1729" cy="400.707" fill="#84BE84" rx="3" ry="3" style="stroke: #038048; stroke-width: 1.0;"/><text fill="#000000" font-family="sans-serif" font-size="11" font-style="italic" lengthAdjust="spacingAndGlyphs" textLength="178" x="1738" y="403.0151">findByMrn(String): Organization</text><ellipse cx="1729" cy="413.5117" fill="#84BE84" rx="3" ry="3" style="stroke: #038048; stroke-width: 1.0;"/><text fill="#000000" font-family="sans-serif" font-size="11" font-style="italic" lengthAdjust="spacingAndGlyphs" textLength="306" x="1738" y="415.8198">findByApprovedFalse(Pageable): Page&lt;Organization&gt;</text><ellipse cx="1729" cy="426.3164" fill="#84BE84" rx="3" ry="3" style="stroke: #038048; stroke-width: 1.0;"/><text fill="#000000" font-family="sans-serif" font-size="11" font-style="italic" lengthAdjust="spacingAndGlyphs" textLength="303" x="1738" y="428.6245">findByApprovedTrue(Pageable): Page&lt;Organization&gt;</text></a><!--class net.maritimecloud.identityregistry.repositories.EntityRepository--><a target="_top" xlink:actuate="onRequest" xlink:href="EntityRepository.html" xlink:show="new" xlink:title="EntityRepository.html" xlink:type="simple"><rect fill="#FEFECE" filter="url(#ftalnp7)" height="99.2188" style="stroke: #A80036; stroke-width: 1.5;" width="300" x="1383" y="336"/><ellipse cx="1472.25" cy="352" fill="#B4A7E5" rx="11" ry="11" style="stroke: #A80036; stroke-width: 1.0;"/><path d="M1468.1719,347.7656 L1468.1719,345.6094 L1475.5625,345.6094 L1475.5625,347.7656 L1473.0938,347.7656 L1473.0938,355.8438 L1475.5625,355.8438 L1475.5625,358 L1468.1719,358 L1468.1719,355.8438 L1470.6406,355.8438 L1470.6406,347.7656 L1468.1719,347.7656 Z "/><text fill="#000000" font-family="sans-serif" font-size="12" font-style="italic" lengthAdjust="spacingAndGlyphs" textLength="102" x="1492.75" y="356.1543">EntityRepository</text><rect fill="#FFFFFF" height="15.9688" style="stroke: #000000; stroke-width: 1.0; stroke-dasharray: 2.0,2.0;" width="9" x="1677" y="333"/><text fill="#000000" font-family="sans-serif" font-size="12" font-style="italic" lengthAdjust="spacingAndGlyphs" textLength="7" x="1678" y="345.1387">T</text><line style="stroke: #A80036; stroke-width: 1.5;" x1="1384" x2="1682" y1="368" y2="368"/><line style="stroke: #A80036; stroke-width: 1.5;" x1="1384" x2="1682" y1="376" y2="376"/><ellipse cx="1394" cy="387.9023" fill="#84BE84" rx="3" ry="3" style="stroke: #038048; stroke-width: 1.0;"/><text fill="#000000" font-family="sans-serif" font-size="11" font-style="italic" lengthAdjust="spacingAndGlyphs" textLength="205" x="1403" y="390.2104">findByIdOrganization(Long): List&lt;T&gt;</text><ellipse cx="1394" cy="400.707" fill="#84BE84" rx="3" ry="3" style="stroke: #038048; stroke-width: 1.0;"/><text fill="#000000" font-family="sans-serif" font-size="11" font-style="italic" lengthAdjust="spacingAndGlyphs" textLength="274" x="1403" y="403.0151">findByidOrganization(Long, Pageable): Page&lt;T&gt;</text><ellipse cx="1394" cy="413.5117" fill="#84BE84" rx="3" ry="3" style="stroke: #038048; stroke-width: 1.0;"/><text fill="#000000" font-family="sans-serif" font-size="11" font-style="italic" lengthAdjust="spacingAndGlyphs" textLength="199" x="1403" y="415.8198">deleteByidOrganization(Long): void</text><ellipse cx="1394" cy="426.3164" fill="#84BE84" rx="3" ry="3" style="stroke: #038048; stroke-width: 1.0;"/><text fill="#000000" font-family="sans-serif" font-size="11" font-style="italic" lengthAdjust="spacingAndGlyphs" textLength="174" x="1403" y="428.6245">getByMrnIgnoreCase(String): T</text></a><!--class net.maritimecloud.identityregistry.repositories.VesselRepository--><a target="_top" xlink:actuate="onRequest" xlink:href="VesselRepository.html" xlink:show="new" xlink:title="VesselRepository.html" xlink:type="simple"><rect fill="#FEFECE" filter="url(#ftalnp7)" height="60.8047" style="stroke: #A80036; stroke-width: 1.5;" width="218" x="1424" y="508"/><ellipse cx="1476.25" cy="524" fill="#B4A7E5" rx="11" ry="11" style="stroke: #A80036; stroke-width: 1.0;"/><path d="M1472.1719,519.7656 L1472.1719,517.6094 L1479.5625,517.6094 L1479.5625,519.7656 L1477.0938,519.7656 L1477.0938,527.8438 L1479.5625,527.8438 L1479.5625,530 L1472.1719,530 L1472.1719,527.8438 L1474.6406,527.8438 L1474.6406,519.7656 L1472.1719,519.7656 Z "/><text fill="#000000" font-family="sans-serif" font-size="12" font-style="italic" lengthAdjust="spacingAndGlyphs" textLength="105" x="1496.75" y="528.1543">VesselRepository</text><line style="stroke: #A80036; stroke-width: 1.5;" x1="1425" x2="1641" y1="540" y2="540"/><line style="stroke: #A80036; stroke-width: 1.5;" x1="1425" x2="1641" y1="548" y2="548"/><ellipse cx="1435" cy="559.9023" fill="#84BE84" rx="3" ry="3" style="stroke: #038048; stroke-width: 1.0;"/><text fill="#000000" font-family="sans-serif" font-size="11" font-style="italic" lengthAdjust="spacingAndGlyphs" textLength="192" x="1444" y="562.2104">findByName(String): List&lt;Vessel&gt;</text></a><!--class net.maritimecloud.identityregistry.repositories.CertificateRepository--><a target="_top" xlink:actuate="onRequest" xlink:href="CertificateRepository.html" xlink:show="new" xlink:title="CertificateRepository.html" xlink:type="simple"><rect fill="#FEFECE" filter="url(#ftalnp7)" height="112.0234" style="stroke: #A80036; stroke-width: 1.5;" width="477" x="447.5" y="329.5"/><ellipse cx="616.75" cy="345.5" fill="#B4A7E5" rx="11" ry="11" style="stroke: #A80036; stroke-width: 1.0;"/><path d="M612.6719,341.2656 L612.6719,339.1094 L620.0625,339.1094 L620.0625,341.2656 L617.5938,341.2656 L617.5938,349.3438 L620.0625,349.3438 L620.0625,351.5 L612.6719,351.5 L612.6719,349.3438 L615.1406,349.3438 L615.1406,341.2656 L612.6719,341.2656 Z "/><text fill="#000000" font-family="sans-serif" font-size="12" font-style="italic" lengthAdjust="spacingAndGlyphs" textLength="130" x="637.25" y="349.6543">CertificateRepository</text><line style="stroke: #A80036; stroke-width: 1.5;" x1="448.5" x2="923.5" y1="361.5" y2="361.5"/><line style="stroke: #A80036; stroke-width: 1.5;" x1="448.5" x2="923.5" y1="369.5" y2="369.5"/><ellipse cx="458.5" cy="381.4023" fill="#84BE84" rx="3" ry="3" style="stroke: #038048; stroke-width: 1.0;"/><text fill="#000000" font-family="sans-serif" font-size="11" font-style="italic" lengthAdjust="spacingAndGlyphs" textLength="242" x="467.5" y="383.7104">getBySerialNumber(BigInteger): Certificate</text><ellipse cx="458.5" cy="394.207" fill="#84BE84" rx="3" ry="3" style="stroke: #038048; stroke-width: 1.0;"/><text fill="#000000" font-family="sans-serif" font-size="11" font-style="italic" lengthAdjust="spacingAndGlyphs" textLength="220" x="467.5" y="396.5151">findByvessel(Vessel): List&lt;Certificate&gt;</text><ellipse cx="458.5" cy="407.0117" fill="#84BE84" rx="3" ry="3" style="stroke: #038048; stroke-width: 1.0;"/><text fill="#000000" font-family="sans-serif" font-size="11" font-style="italic" lengthAdjust="spacingAndGlyphs" textLength="222" x="467.5" y="409.3198">findBydevice(Device): List&lt;Certificate&gt;</text><ellipse cx="458.5" cy="419.8164" fill="#84BE84" rx="3" ry="3" style="stroke: #038048; stroke-width: 1.0;"/><text fill="#000000" font-family="sans-serif" font-size="11" font-style="italic" lengthAdjust="spacingAndGlyphs" textLength="198" x="467.5" y="422.1245">findByuser(User): List&lt;Certificate&gt;</text><ellipse cx="458.5" cy="432.6211" fill="#84BE84" rx="3" ry="3" style="stroke: #038048; stroke-width: 1.0;"/><text fill="#000000" font-family="sans-serif" font-size="11" font-style="italic" lengthAdjust="spacingAndGlyphs" textLength="451" x="467.5" y="434.9292">findByCertificateAuthorityIgnoreCaseAndRevokedTrue(String): List&lt;Certificate&gt;</text></a><!--class net.maritimecloud.identityregistry.repositories.UserRepository--><a target="_top" xlink:actuate="onRequest" xlink:href="UserRepository.html" xlink:show="new" xlink:title="UserRepository.html" xlink:type="simple"><rect fill="#FEFECE" filter="url(#ftalnp7)" height="48" style="stroke: #A80036; stroke-width: 1.5;" width="126" x="1677" y="514.5"/><ellipse cx="1692" cy="530.5" fill="#B4A7E5" rx="11" ry="11" style="stroke: #A80036; stroke-width: 1.0;"/><path d="M1687.9219,526.2656 L1687.9219,524.1094 L1695.3125,524.1094 L1695.3125,526.2656 L1692.8438,526.2656 L1692.8438,534.3438 L1695.3125,534.3438 L1695.3125,536.5 L1687.9219,536.5 L1687.9219,534.3438 L1690.3906,534.3438 L1690.3906,526.2656 L1687.9219,526.2656 Z "/><text fill="#000000" font-family="sans-serif" font-size="12" font-style="italic" lengthAdjust="spacingAndGlyphs" textLength="94" x="1706" y="534.6543">UserRepository</text><line style="stroke: #A80036; stroke-width: 1.5;" x1="1678" x2="1802" y1="546.5" y2="546.5"/><line style="stroke: #A80036; stroke-width: 1.5;" x1="1678" x2="1802" y1="554.5" y2="554.5"/></a><!--class org.springframework.data.repository.PagingAndSortingRepository--><rect fill="#FEFECE" filter="url(#ftalnp7)" height="73.6094" style="stroke: #A80036; stroke-width: 1.5;" width="241" x="1033.5" y="116.5"/><ellipse cx="1048.5" cy="132.5" fill="#B4A7E5" rx="11" ry="11" style="stroke: #A80036; stroke-width: 1.0;"/><path d="M1044.4219,128.2656 L1044.4219,126.1094 L1051.8125,126.1094 L1051.8125,128.2656 L1049.3438,128.2656 L1049.3438,136.3438 L1051.8125,136.3438 L1051.8125,138.5 L1044.4219,138.5 L1044.4219,136.3438 L1046.8906,136.3438 L1046.8906,128.2656 L1044.4219,128.2656 Z "/><text fill="#000000" font-family="sans-serif" font-size="12" font-style="italic" lengthAdjust="spacingAndGlyphs" textLength="177" x="1062.5" y="136.6543">PagingAndSortingRepository</text><rect fill="#FFFFFF" height="15.9688" style="stroke: #000000; stroke-width: 1.0; stroke-dasharray: 2.0,2.0;" width="30" x="1247.5" y="113.5"/><text fill="#000000" font-family="sans-serif" font-size="12" font-style="italic" lengthAdjust="spacingAndGlyphs" textLength="28" x="1248.5" y="125.6387">T, ID</text><line style="stroke: #A80036; stroke-width: 1.5;" x1="1034.5" x2="1273.5" y1="148.5" y2="148.5"/><line style="stroke: #A80036; stroke-width: 1.5;" x1="1034.5" x2="1273.5" y1="156.5" y2="156.5"/><ellipse cx="1044.5" cy="168.4023" fill="#84BE84" rx="3" ry="3" style="stroke: #038048; stroke-width: 1.0;"/><text fill="#000000" font-family="sans-serif" font-size="11" font-style="italic" lengthAdjust="spacingAndGlyphs" textLength="142" x="1053.5" y="170.7104">findAll(Sort): Iterable&lt;T&gt;</text><ellipse cx="1044.5" cy="181.207" fill="#84BE84" rx="3" ry="3" style="stroke: #038048; stroke-width: 1.0;"/><text fill="#000000" font-family="sans-serif" font-size="11" font-style="italic" lengthAdjust="spacingAndGlyphs" textLength="156" x="1053.5" y="183.5151">findAll(Pageable): Page&lt;T&gt;</text><!--class org.springframework.data.repository.CrudRepository--><rect fill="#FEFECE" filter="url(#ftalnp7)" height="188.8516" style="stroke: #A80036; stroke-width: 1.5;" width="217" x="781.5" y="59"/><ellipse cx="822.6" cy="75" fill="#B4A7E5" rx="11" ry="11" style="stroke: #A80036; stroke-width: 1.0;"/><path d="M818.5219,70.7656 L818.5219,68.6094 L825.9125,68.6094 L825.9125,70.7656 L823.4438,70.7656 L823.4438,78.8438 L825.9125,78.8438 L825.9125,81 L818.5219,81 L818.5219,78.8438 L820.9906,78.8438 L820.9906,70.7656 L818.5219,70.7656 Z "/><text fill="#000000" font-family="sans-serif" font-size="12" font-style="italic" lengthAdjust="spacingAndGlyphs" textLength="95" x="842.4" y="79.1543">CrudRepository</text><rect fill="#FFFFFF" height="15.9688" style="stroke: #000000; stroke-width: 1.0; stroke-dasharray: 2.0,2.0;" width="30" x="971.5" y="56"/><text fill="#000000" font-family="sans-serif" font-size="12" font-style="italic" lengthAdjust="spacingAndGlyphs" textLength="28" x="972.5" y="68.1387">T, ID</text><line style="stroke: #A80036; stroke-width: 1.5;" x1="782.5" x2="997.5" y1="91" y2="91"/><line style="stroke: #A80036; stroke-width: 1.5;" x1="782.5" x2="997.5" y1="99" y2="99"/><ellipse cx="792.5" cy="110.9023" fill="#84BE84" rx="3" ry="3" style="stroke: #038048; stroke-width: 1.0;"/><text fill="#000000" font-family="sans-serif" font-size="11" font-style="italic" lengthAdjust="spacingAndGlyphs" textLength="57" x="801.5" y="113.2104">save(S): S</text><ellipse cx="792.5" cy="123.707" fill="#84BE84" rx="3" ry="3" style="stroke: #038048; stroke-width: 1.0;"/><text fill="#000000" font-family="sans-serif" font-size="11" font-style="italic" lengthAdjust="spacingAndGlyphs" textLength="74" x="801.5" y="126.0151">save(Iterable</text><text fill="#000000" font-family="sans-serif" font-size="11" font-style="italic" lengthAdjust="spacingAndGlyphs" text-decoration="line-through" textLength="80" x="875.5" y="126.0151">): Iterable&lt;S&gt;</text><ellipse cx="792.5" cy="136.5117" fill="#84BE84" rx="3" ry="3" style="stroke: #038048; stroke-width: 1.0;"/><text fill="#000000" font-family="sans-serif" font-size="11" font-style="italic" lengthAdjust="spacingAndGlyphs" textLength="78" x="801.5" y="138.8198">findOne(ID): T</text><ellipse cx="792.5" cy="149.3164" fill="#84BE84" rx="3" ry="3" style="stroke: #038048; stroke-width: 1.0;"/><text fill="#000000" font-family="sans-serif" font-size="11" font-style="italic" lengthAdjust="spacingAndGlyphs" textLength="105" x="801.5" y="151.6245">exists(ID): boolean</text><ellipse cx="792.5" cy="162.1211" fill="#84BE84" rx="3" ry="3" style="stroke: #038048; stroke-width: 1.0;"/><text fill="#000000" font-family="sans-serif" font-size="11" font-style="italic" lengthAdjust="spacingAndGlyphs" textLength="119" x="801.5" y="164.4292">findAll(): Iterable&lt;T&gt;</text><ellipse cx="792.5" cy="174.9258" fill="#84BE84" rx="3" ry="3" style="stroke: #038048; stroke-width: 1.0;"/><text fill="#000000" font-family="sans-serif" font-size="11" font-style="italic" lengthAdjust="spacingAndGlyphs" textLength="191" x="801.5" y="177.2339">findAll(Iterable&lt;ID&gt;): Iterable&lt;T&gt;</text><ellipse cx="792.5" cy="187.7305" fill="#84BE84" rx="3" ry="3" style="stroke: #038048; stroke-width: 1.0;"/><text fill="#000000" font-family="sans-serif" font-size="11" font-style="italic" lengthAdjust="spacingAndGlyphs" textLength="71" x="801.5" y="190.0386">count(): long</text><ellipse cx="792.5" cy="200.5352" fill="#84BE84" rx="3" ry="3" style="stroke: #038048; stroke-width: 1.0;"/><text fill="#000000" font-family="sans-serif" font-size="11" font-style="italic" lengthAdjust="spacingAndGlyphs" textLength="86" x="801.5" y="202.8433">delete(ID): void</text><ellipse cx="792.5" cy="213.3398" fill="#84BE84" rx="3" ry="3" style="stroke: #038048; stroke-width: 1.0;"/><text fill="#000000" font-family="sans-serif" font-size="11" font-style="italic" lengthAdjust="spacingAndGlyphs" textLength="82" x="801.5" y="215.6479">delete(T): void</text><ellipse cx="792.5" cy="226.1445" fill="#84BE84" rx="3" ry="3" style="stroke: #038048; stroke-width: 1.0;"/><text fill="#000000" font-family="sans-serif" font-size="11" font-style="italic" lengthAdjust="spacingAndGlyphs" textLength="142" x="801.5" y="228.4526">delete(Iterable&lt;?&gt;): void</text><ellipse cx="792.5" cy="238.9492" fill="#84BE84" rx="3" ry="3" style="stroke: #038048; stroke-width: 1.0;"/><text fill="#000000" font-family="sans-serif" font-size="11" font-style="italic" lengthAdjust="spacingAndGlyphs" textLength="89" x="801.5" y="241.2573">deleteAll(): void</text><path d="M1433.87,445.434 C1397.86,466.84 1358.71,490.115 1328.78,507.9065 " fill="none" style="stroke: #A80036; stroke-width: 1.0; stroke-dasharray: 7.0,7.0;"/><polygon fill="none" points="1430.47,439.312,1451.23,435.109,1437.62,451.346,1430.47,439.312" style="stroke: #A80036; stroke-width: 1.0;"/><path d="M1154,210.902 C1154,244.726 1154,287.78 1154,322.548 " fill="none" style="stroke: #A80036; stroke-width: 1.0; stroke-dasharray: 7.0,7.0;"/><polygon fill="none" points="1147,210.691,1154,190.691,1161,210.69,1147,210.691" style="stroke: #A80036; stroke-width: 1.0;"/><path d="M761.406,182.109 C667.888,203.977 539.093,237.827 430,280 C385.101,297.357 337.05,321.527 298.763,342.251 " fill="none" style="stroke: #A80036; stroke-width: 1.0; stroke-dasharray: 7.0,7.0;"/><polygon fill="none" points="760.04,175.24,781.103,177.558,763.192,188.881,760.04,175.24" style="stroke: #A80036; stroke-width: 1.0;"/><path d="M1294.38,175.035 C1406.92,194.244 1567.54,227.898 1701,280 C1738.66,294.702 1777.9,316.182 1810.35,335.849 " fill="none" style="stroke: #A80036; stroke-width: 1.0; stroke-dasharray: 7.0,7.0;"/><polygon fill="none" points="1293.22,181.938,1274.65,171.731,1295.53,168.13,1293.22,181.938" style="stroke: #A80036; stroke-width: 1.0;"/><path d="M1233.3,200.82 C1273.24,224.309 1322.34,253.422 1366,280 C1395.65,298.051 1428.04,318.215 1456.34,335.98 " fill="none" style="stroke: #A80036; stroke-width: 1.0; stroke-dasharray: 7.0,7.0;"/><polygon fill="none" points="1229.63,206.784,1215.93,190.62,1236.72,194.711,1229.63,206.784" style="stroke: #A80036; stroke-width: 1.0;"/><path d="M1533,455.168 C1533,473.699 1533,492.783 1533,507.9065 " fill="none" style="stroke: #A80036; stroke-width: 1.0; stroke-dasharray: 7.0,7.0;"/><polygon fill="none" points="1526,455.109,1533,435.109,1540,455.108,1526,455.109" style="stroke: #A80036; stroke-width: 1.0;"/><path d="M793.712,263.06 C773.333,286.036 752.649,309.356 734.928,329.336 " fill="none" style="stroke: #A80036; stroke-width: 1.0; stroke-dasharray: 7.0,7.0;"/><polygon fill="none" points="788.517,258.367,807.025,248.05,798.991,267.657,788.517,258.367" style="stroke: #A80036; stroke-width: 1.0;"/><path d="M1616.24,447.219 C1648.6,470.827 1683.71,496.441 1708.24,514.3351 " fill="none" style="stroke: #A80036; stroke-width: 1.0; stroke-dasharray: 7.0,7.0;"/><polygon fill="none" points="1611.67,452.55,1599.64,435.109,1619.92,441.24,1611.67,452.55" style="stroke: #A80036; stroke-width: 1.0;"/></g></svg>